<?xml version="1.0" encoding="utf-8"?>
<!-- Generator: Adobe Illustrator 24.0.0, SVG Export Plug-In . SVG Version: 6.00 Build 0)  -->
<svg version="1.1" id="Layer_1" xmlns="http://www.w3.org/2000/svg" xmlns:xlink="http://www.w3.org/1999/xlink" x="0px" y="0px"
	 viewBox="0 0 238 33" style="enable-background:new 0 0 238 33;" xml:space="preserve">
<style type="text/css">
	.st0{fill:#0197A2;}
	.st1{fill:#FFFFFF;}
</style>
<g>
	<path class="st0" d="M2.03,5.03h9.78c4.04,0,7.28,2.99,7.28,6.79c0,2.26-0.93,3.68-2.63,4.97v0.08c2.51,1.78,3.56,3.48,3.56,5.98
		c0,3.35-2.67,6.43-7.28,6.43H2.03V5.03z M10.77,14.69c1.37,0,2.34-0.93,2.34-2.26c0-1.25-0.97-2.22-2.34-2.22H7.94v4.49H10.77z
		 M11.53,23.99c1.37,0,2.26-0.81,2.26-2.1c0-1.17-0.89-2.14-2.26-2.14h-3.6v4.24H11.53z"/>
	<path class="st0" d="M21.72,21.12h5.74v0.65c0,1.78,1.5,2.99,3.19,2.99c1.86,0,3.27-1.21,3.27-2.99c0-1.86-1.5-2.63-3.27-2.63
		h-1.38v-5.5h1.29c1.42,0,2.14-1.25,2.14-2.26c0-0.97-0.81-1.74-1.86-1.74c-1.01,0-1.7,0.77-1.7,1.74v0.57h-5.94v-0.57
		c0-3.84,3.52-7.15,7.64-7.15c4.89,0,7.84,3.35,7.84,6.83c0,1.58-0.89,3.6-2.3,4.81c2.34,1.7,3.31,3.88,3.31,6.15
		c0,4.08-3.52,8.08-9.05,8.08c-4.97,0-8.93-3.68-8.93-8.33V21.12z"/>
</g>
<rect x="44.56" y="3.98" class="st0" width="191.53" height="26.12"/>
<g>
	<path class="st1" d="M50.86,9.38H61.2v3.39h-6.51v2.81h6.02v3.33h-6.02v2.81h6.8V25H50.86V9.38z"/>
	<path class="st1" d="M63.86,9.38h4.04l6.07,9.27V9.38h3.8V25h-3.99l-6.09-9.3V25h-3.83V9.38z"/>
	<path class="st1" d="M83.55,12.76h-3.49V9.38h10.89v3.39h-3.54V25h-3.86V12.76z"/>
	<path class="st1" d="M93.25,9.38h10.34v3.39h-6.51v2.81h6.02v3.33h-6.02v2.81h6.8V25H93.25V9.38z"/>
	<path class="st1" d="M106.25,9.38h6.54c3.36,0,5.55,2.03,5.55,4.97c0,2.74-1.38,4.27-3.7,4.85l4.22,5.81h-4.79l-3.99-5.83V25h-3.83
		V9.38z M113.15,16.15c0.86,0,1.43-0.89,1.43-1.8c0-0.91-0.68-1.72-1.54-1.72h-2.97v3.52H113.15z"/>
	<path class="st1" d="M123.23,12.76h-3.49V9.38h10.89v3.39h-3.54V25h-3.86V12.76z"/>
	<path class="st1" d="M137.35,8.85h0.68L145.69,25h-4.12l-0.78-1.62h-6.17L133.86,25h-4.12L137.35,8.85z M139.49,20.65l-1.8-3.96
		h-0.05l-1.82,3.96H139.49z"/>
	<path class="st1" d="M147.36,9.38h3.83V25h-3.83V9.38z"/>
	<path class="st1" d="M154.21,9.38h4.04l6.07,9.27V9.38h3.8V25h-3.99l-6.09-9.3V25h-3.83V9.38z"/>
	<path class="st1" d="M171.14,9.38h3.57l3.99,8.44l4.01-8.44h3.52V25h-3.8v-6.95l-3.41,7.47h-0.62L174.97,18V25h-3.83V9.38z"/>
	<path class="st1" d="M189.25,9.38h10.34v3.39h-6.51v2.81h6.02v3.33h-6.02v2.81h6.8V25h-10.63V9.38z"/>
	<path class="st1" d="M202.25,9.38h4.04l6.07,9.27V9.38h3.8V25h-3.99l-6.09-9.3V25h-3.83V9.38z"/>
	<path class="st1" d="M221.94,12.76h-3.49V9.38h10.89v3.39h-3.54V25h-3.86V12.76z"/>
</g>
</svg>
