<?xml version="1.0" encoding="utf-8"?>
<!-- Generator: Adobe Illustrator 24.0.0, SVG Export Plug-In . SVG Version: 6.00 Build 0)  -->
<svg version="1.1" id="Layer_1" xmlns="http://www.w3.org/2000/svg" xmlns:xlink="http://www.w3.org/1999/xlink" x="0px" y="0px"
	 viewBox="0 0 238 33" style="enable-background:new 0 0 238 33;" xml:space="preserve">
<style type="text/css">
	.st0{fill:#FFFFFF;}
</style>
<g>
	<path class="st0" d="M2,5h9.8c4,0,7.3,3,7.3,6.8c0,2.3-0.9,3.7-2.6,5v0.1c2.5,1.8,3.6,3.5,3.6,6c0,3.4-2.7,6.4-7.3,6.4H2V5z
		 M10.8,14.7c1.4,0,2.3-0.9,2.3-2.3c0-1.2-1-2.2-2.3-2.2H7.9v4.5H10.8L10.8,14.7z M11.5,24c1.4,0,2.3-0.8,2.3-2.1
		c0-1.2-0.9-2.1-2.3-2.1H7.9V24H11.5z"/>
	<path class="st0" d="M21.7,21.1h5.7v0.6c0,1.8,1.5,3,3.2,3c1.9,0,3.3-1.2,3.3-3c0-1.9-1.5-2.6-3.3-2.6h-1.4v-5.5h1.3
		c1.4,0,2.1-1.2,2.1-2.3c0-1-0.8-1.7-1.9-1.7c-1,0-1.7,0.8-1.7,1.7v0.6h-5.9v-0.6c0-3.8,3.5-7.2,7.6-7.2c4.9,0,7.8,3.3,7.8,6.8
		c0,1.6-0.9,3.6-2.3,4.8c2.3,1.7,3.3,3.9,3.3,6.1c0,4.1-3.5,8.1-9,8.1c-5,0-8.9-3.7-8.9-8.3L21.7,21.1L21.7,21.1z"/>
</g>
<path class="st0" d="M113.1,12.6h-3v3.5h3.1c0.9,0,1.4-0.9,1.4-1.8C114.6,13.4,113.9,12.6,113.1,12.6z"/>
<g>
	<path class="st0" d="M44.6,4v26.1h191.5V4H44.6z M61.5,25H50.9V9.4h10.3v3.4h-6.5v2.8h6v3.3h-6v2.8h6.8V25z M77.8,25h-4l-6.1-9.3
		V25h-3.8V9.4h4l6.1,9.3V9.4h3.8V25z M91,12.8h-3.5V25h-3.9V12.8h-3.5V9.4H91V12.8z M103.8,25H93.2V9.4h10.3v3.4H97v2.8h6v3.3h-6
		v2.8h6.8V25z M114,25.1l-4-5.8V25h-3.8c0.1,0,0.1-15.6,0-15.6h6.5c3.4,0,5.6,2,5.6,5c0,2.7-1.4,4.3-3.7,4.9l4.2,5.8H114z M127.1,25
		h-3.9V12.8h-3.5V9.4h10.9v3.4h-3.5V25z M141.7,25l-0.8-1.6h-6.2l-0.8,1.6h-4.1l7.6-16.1h0.7l7.7,16.1H141.7z M151.2,25h-3.8V9.4
		h3.8V25z M168.1,25h-4l-6.1-9.3V25h-3.8V9.4h4l6.1,9.3V9.4h3.8V25z M186.2,25h-3.8v-7l-3.4,7.5h-0.6L175,18v7h-3.8V9.4h3.5l4,8.4
		l4-8.4h3.5V25z M199.8,25h-10.6V9.4h10.3v3.4H193v2.8h6v3.3h-6v2.8h6.8V25z M216.1,25h-4l-6.1-9.3V25h-3.8V9.4h4l6.1,9.3V9.4h3.8
		V25z M229.3,12.8h-3.5V25h-3.9V12.8h-3.5V9.4h10.9V12.8z"/>
	<polygon class="st0" points="137.6,16.6 135.8,20.6 139.5,20.6 137.7,16.6 	"/>
</g>
</svg>
