<?xml version="1.0" encoding="utf-8"?>
<!-- Generator: Adobe Illustrator 23.0.6, SVG Export Plug-In . SVG Version: 6.00 Build 0)  -->
<svg version="1.1" id="Layer_1" xmlns="http://www.w3.org/2000/svg" xmlns:xlink="http://www.w3.org/1999/xlink" x="0px" y="0px"
	 viewBox="0 0 500 101" style="enable-background:new 0 0 500 101;" xml:space="preserve">
<style type="text/css">
	.st0{fill:#1F4170;}
	.st1{fill:#3266AF;}
</style>
<path class="st0" d="M22,21.7v27.5h42.8v14.2H22v34.5H5.5V7.7h64.7v14.1H22z"/>
<path class="st0" d="M91.4,94.3c-5.5-3-9.8-7.2-12.8-12.6C75.5,76.3,74,70.2,74,63.4s1.5-12.8,4.6-18.2s7.4-9.5,12.8-12.5
	c5.5-3,11.6-4.5,18.5-4.5c6.9,0,13.1,1.5,18.6,4.5c5.5,3,9.8,7.2,12.8,12.5s4.6,11.4,4.6,18.2c0,6.8-1.5,12.9-4.6,18.2
	c-3.1,5.4-7.4,9.6-12.8,12.6c-5.5,3-11.7,4.5-18.6,4.5C103.1,98.8,96.9,97.3,91.4,94.3z M124.3,79.1c3.8-3.9,5.7-9.2,5.7-15.6
	s-1.9-11.6-5.7-15.6c-3.8-4-8.6-5.9-14.4-5.9s-10.6,2-14.4,5.9s-5.6,9.2-5.6,15.6s1.9,11.6,5.6,15.6s8.5,5.9,14.4,5.9
	S120.6,83,124.3,79.1z"/>
<path class="st0" d="M169.9,94.3c-5.5-3-9.8-7.2-12.8-12.6s-4.6-11.4-4.6-18.2s1.5-12.8,4.6-18.2s7.4-9.5,12.8-12.5
	s11.6-4.5,18.5-4.5c6.9,0,13.1,1.5,18.6,4.5c5.5,3,9.8,7.2,12.8,12.5s4.6,11.4,4.6,18.2c0,6.8-1.5,12.9-4.6,18.2
	c-3.1,5.4-7.4,9.6-12.8,12.6s-11.7,4.5-18.6,4.5C181.6,98.8,175.4,97.3,169.9,94.3z M202.8,79.1c3.8-3.9,5.7-9.2,5.7-15.6
	s-1.9-11.6-5.7-15.6c-3.8-4-8.6-5.9-14.4-5.9s-10.6,2-14.4,5.9s-5.6,9.2-5.6,15.6s1.9,11.6,5.6,15.6s8.5,5.9,14.4,5.9
	S199,83,202.8,79.1z"/>
<path class="st1" d="M309.8,59c3.2,3.8,4.7,8.7,4.7,14.8c0,7.7-2.8,13.7-8.4,17.8c-5.6,4.2-13.9,6.3-24.9,6.3h-40.7V7.7h38.2
	c9.9,0,17.5,2,23,6.1s8.2,9.7,8.2,17.1c0,5-1.2,9.2-3.6,12.7c-2.4,3.5-5.7,6.1-9.9,7.8C302.1,52.6,306.6,55.2,309.8,59z M249.9,15.5
	v32.7h28.2c7.2,0,12.7-1.4,16.6-4.2c3.9-2.8,5.8-6.8,5.8-12.2s-1.9-9.4-5.8-12.2s-9.4-4.2-16.6-4.2H249.9z M299.1,85.9
	c4-2.8,6.1-7,6.1-12.9c0-11.3-8-16.9-24-16.9h-31.3V90h31.3C289,90,295,88.6,299.1,85.9z"/>
<path class="st1" d="M330.9,2.2h9v95.6h-9V2.2z"/>
<path class="st1" d="M405,36.2c4.6,4.4,7,11,7,19.6v42h-8.6V87.3c-2,3.5-5,6.3-8.9,8.3s-8.6,3-14,3c-7.4,0-13.3-1.8-17.7-5.4
	s-6.6-8.4-6.6-14.3c0-5.8,2-10.4,6.1-13.9c4.1-3.5,10.6-5.3,19.5-5.3H403v-4.1c0-5.8-1.6-10.3-4.8-13.3s-7.9-4.6-14-4.6
	c-4.2,0-8.3,0.7-12.1,2.1c-3.9,1.4-7.2,3.4-10,5.9l-4-6.8c3.4-2.9,7.4-5.2,12.1-6.8c4.7-1.6,9.7-2.4,14.9-2.4
	C393.7,29.6,400.4,31.8,405,36.2z M394.9,87.8c3.6-2.4,6.3-5.8,8.1-10.3V66.4h-20.9c-11.4,0-17.1,4-17.1,12.1c0,3.9,1.5,7.1,4.4,9.3
	c3,2.3,7.1,3.4,12.4,3.4C386.9,91.3,391.3,90.1,394.9,87.8z"/>
<path class="st1" d="M487.1,37c4.9,4.9,7.4,12.1,7.4,21.6v39.3h-9V59.5c0-7-1.7-12.4-5.2-16.1c-3.5-3.7-8.4-5.5-14.8-5.5
	c-7.2,0-12.8,2.2-17,6.5s-6.3,10.3-6.3,18v35.6h-9V2.2h9v39.7c2.5-4,5.8-7,10.1-9.2s9.2-3.2,14.8-3.2C475.5,29.6,482.1,32,487.1,37z
	"/>
</svg>
